<svg xmlns="http://www.w3.org/2000/svg" aria-hidden="true" style="position:absolute;width:0;height:0;overflow:hidden"><defs>
  <symbol id="humburger" viewBox="0 0 32 32 ">
  <path stroke-linecap="round" stroke-width="6.088" d="M3.663 28.337H34.59M3.663 15.999H34.59M3.663 3.66H34.59"/>
  </symbol>
  <symbol id="insta" viewBox="0 0 32 32">
  <path d="M10.668 16A5.333 5.333 0 1 1 16 21.334 5.332 5.332 0 0 1 10.668 16zm-2.884 0c0 4.538 3.678 8.216 8.216 8.216s8.216-3.678 8.216-8.216S20.538 7.784 16 7.784 7.784 11.462 7.784 16zm14.837-8.542a1.92 1.92 0 1 0 3.842 0 1.92 1.92 0 0 0-3.842 0zM9.535 29.024c-1.56-.071-2.408-.331-2.971-.551a4.974 4.974 0 0 1-1.84-1.197 4.95 4.95 0 0 1-1.197-1.839c-.22-.564-.479-1.411-.551-2.971-.078-1.687-.093-2.193-.093-6.466s.017-4.778.093-6.466c.071-1.56.332-2.406.551-2.971a4.974 4.974 0 0 1 1.197-1.84 4.946 4.946 0 0 1 1.84-1.197c.564-.22 1.411-.479 2.971-.551 1.687-.078 2.193-.093 6.465-.093 4.273 0 4.778.017 6.466.093 1.56.071 2.406.332 2.971.551a4.95 4.95 0 0 1 1.84 1.197c.56.56.906 1.093 1.197 1.84.22.564.479 1.411.551 2.971.078 1.688.093 2.193.093 6.466 0 4.271-.015 4.778-.093 6.466-.071 1.56-.332 2.408-.551 2.971-.291.747-.637 1.279-1.197 1.839s-1.093.906-1.84 1.197c-.564.22-1.411.479-2.971.551-1.687.078-2.193.093-6.466.093-4.271 0-4.778-.015-6.465-.093zM9.404.097C7.701.175 6.537.445 5.52.84a7.832 7.832 0 0 0-2.834 1.846A7.841 7.841 0 0 0 .84 5.52C.445 6.537.174 7.7.097 9.404.018 11.11 0 11.655 0 16s.018 4.89.097 6.596c.078 1.703.348 2.867.743 3.884a7.81 7.81 0 0 0 1.846 2.834A7.854 7.854 0 0 0 5.52 31.16c1.018.395 2.18.666 3.884.743 1.707.078 2.251.097 6.596.097 4.346 0 4.89-.018 6.596-.097 1.703-.078 2.867-.348 3.884-.743a7.858 7.858 0 0 0 2.834-1.846 7.863 7.863 0 0 0 1.846-2.834c.395-1.017.667-2.18.743-3.884.078-1.707.096-2.251.096-6.596s-.018-4.89-.096-6.596c-.078-1.703-.348-2.867-.743-3.884a7.858 7.858 0 0 0-1.846-2.834A7.855 7.855 0 0 0 26.481.84C25.463.445 24.299.173 22.597.097 20.891.019 20.346 0 16.001 0c-4.346 0-4.89.018-6.598.097z"/></symbol>
  <symbol id="facebook" viewBox="0 0 32 32">
  <path  d="M32 16c0 8.837-7.163 16-16 16S0 24.837 0 16 7.163 0 16 0s16 7.163 16 16z"/>
  <path fill="#fff"  d="M21.203 4.911h-3.544c-2.103 0-4.443.885-4.443 3.934.01 1.062 0 2.08 0 3.225h-2.433v3.872h2.509v11.147h4.61V15.868h3.043l.275-3.809h-3.397s.008-1.695 0-2.187c0-1.205 1.254-1.136 1.329-1.136.597 0 1.757.002 2.054 0V4.911z" /></symbol>
  <symbol id="gmail" viewBox="0 0 32 32">
  <path  d="M2.182 28.482h5.091V16.118L0 10.663v15.636c0 1.205.976 2.182 2.182 2.182z"/>
  <path  d="M24.727 28.482h5.091A2.181 2.181 0 0 0 32 26.3V10.664l-7.273 5.455z"/>
  <path  d="M24.727 6.664v9.455L32 10.664V7.755c0-2.696-3.078-4.236-5.236-2.618z"/>
  <path  d="M7.273 16.118V6.663L16 13.208l8.727-6.545v9.455L16 22.663z" />
  <path  d="M0 7.755v2.909l7.273 5.455V6.664L5.237 5.137C3.079 3.519.001 5.059.001 7.755z"/></symbol>
  <symbol id="youtube"viewBox="0 0 32 32">
  <path d="m0 1864.11v.11c1.5 55.5 2 111.32 11.32 166.47 9.92 58.35 24.1 115.25 51.15 168.21q54.86 107.52 150.21 
181.66c45.52 35.5 95.25 63.69 150.3 81.47 80.26 25.89 163.07 35.81 247.09 36.3 52.42.33 104.81 1.64 157.25 1.42 380.82-1.6 761.65 2.75 1142.49-2.35 50.53-.68 100.24-6.85 
149.84-15.92 95.06-17.4 179.07-58 250.95-122.09 83.77-74.71 140.29-166.16 165.81-276.52 16.69-72.14 20.87-145.32 21.58-218.77v-14.65c0-5.68-2.16-1247.91-2.36-1264.33-.55-45.
1-3.88-89.87-12.33-134.25-10.29-54.08-24.82-106.78-50.71-155.7-27.35-51.7-61.6-98.17-104-138.79-64.89-62.23-139.78-106.23-227-129.51-78.74-21-159.07-25.68-240-25.6a2.45 2.45
 0 0 1 -.45-1.24h-1224.74c0 .42 0 .83-.07 1.24-45.93.84-91.92.49-137.61 6.16-50.05 6.22-99.63 15.59-147 33.09-74.62 27.6-139.46 70.59-194.84 128-62.75 65-107 140.22-130.44 
 227.79-20.95 78.13-25.51 157.81-25.62 238.06" fill="#fff"/><path d="m0 .79h2498v2498h-2498z" /><path d="m1293.24 1938.65-409.54-7.49c-132.6-2.61-265.53 2.6-395.
 53-24.44-197.76-40.4-211.77-238.49-226.43-404.65-20.2-233.6-12.38-471.44 25.74-703.09 21.52-129.98 106.21-207.54 237.18-215.98 442.12-30.63 887.18-27 1328.32-12.71 46.59 
 1.31 93.5 8.47 139.44 16.62 226.77 39.75 232.3 264.23 247 453.2 14.66 190.92 8.47 382.82-19.55 572.44-22.48 157-65.49 288.66-247 301.37-227.42 16.62-449.62 30-677.68 
 25.74.01-1.01-1.3-1.01-1.95-1.01zm-240.77-397.48c171.38-98.4 339.49-195.16 509.89-292.9-171.7-98.4-339.49-195.16-509.89-292.9z" />
 </symbol>
</defs></svg>