<svg xmlns="http://www.w3.org/2000/svg" aria-hidden="true" style="position:absolute;width:0;height:0;overflow:hidden"><defs>
  <symbol id="insta" viewBox="0 0 32 32">
  <path d="M10.668 16A5.333 5.333 0 1 1 16 21.334 5.332 5.332 0 0 1 10.668 16zm-2.884 0c0 4.538 3.678 8.216 8.216 8.216s8.216-3.678 8.216-8.216S20.538 7.784 16 7.784 7.784 11.462 7.784 16zm14.837-8.542a1.92 1.92 0 1 0 3.842 0 1.92 1.92 0 0 0-3.842 0zM9.535 29.024c-1.56-.071-2.408-.331-2.971-.551a4.974 4.974 0 0 1-1.84-1.197 4.95 4.95 0 0 1-1.197-1.839c-.22-.564-.479-1.411-.551-2.971-.078-1.687-.093-2.193-.093-6.466s.017-4.778.093-6.466c.071-1.56.332-2.406.551-2.971a4.974 4.974 0 0 1 1.197-1.84 4.946 4.946 0 0 1 1.84-1.197c.564-.22 1.411-.479 2.971-.551 1.687-.078 2.193-.093 6.465-.093 4.273 0 4.778.017 6.466.093 1.56.071 2.406.332 2.971.551a4.95 4.95 0 0 1 1.84 1.197c.56.56.906 1.093 1.197 1.84.22.564.479 1.411.551 2.971.078 1.688.093 2.193.093 6.466 0 4.271-.015 4.778-.093 6.466-.071 1.56-.332 2.408-.551 2.971-.291.747-.637 1.279-1.197 1.839s-1.093.906-1.84 1.197c-.564.22-1.411.479-2.971.551-1.687.078-2.193.093-6.466.093-4.271 0-4.778-.015-6.465-.093zM9.404.097C7.701.175 6.537.445 5.52.84a7.832 7.832 0 0 0-2.834 1.846A7.841 7.841 0 0 0 .84 5.52C.445 6.537.174 7.7.097 9.404.018 11.11 0 11.655 0 16s.018 4.89.097 6.596c.078 1.703.348 2.867.743 3.884a7.81 7.81 0 0 0 1.846 2.834A7.854 7.854 0 0 0 5.52 31.16c1.018.395 2.18.666 3.884.743 1.707.078 2.251.097 6.596.097 4.346 0 4.89-.018 6.596-.097 1.703-.078 2.867-.348 3.884-.743a7.858 7.858 0 0 0 2.834-1.846 7.863 7.863 0 0 0 1.846-2.834c.395-1.017.667-2.18.743-3.884.078-1.707.096-2.251.096-6.596s-.018-4.89-.096-6.596c-.078-1.703-.348-2.867-.743-3.884a7.858 7.858 0 0 0-1.846-2.834A7.855 7.855 0 0 0 26.481.84C25.463.445 24.299.173 22.597.097 20.891.019 20.346 0 16.001 0c-4.346 0-4.89.018-6.598.097z"/></symbol>
  <symbol id="facebook" viewBox="0 0 32 32">
  <path  d="M32 16c0 8.837-7.163 16-16 16S0 24.837 0 16 7.163 0 16 0s16 7.163 16 16z"/>
  <path fill="#fff"  d="M21.203 4.911h-3.544c-2.103 0-4.443.885-4.443 3.934.01 1.062 0 2.08 0 3.225h-2.433v3.872h2.509v11.147h4.61V15.868h3.043l.275-3.809h-3.397s.008-1.695 0-2.187c0-1.205 1.254-1.136 1.329-1.136.597 0 1.757.002 2.054 0V4.911z" /></symbol>
  <symbol id="gmail" viewBox="0 0 32 32">
  <path  d="M2.182 28.482h5.091V16.118L0 10.663v15.636c0 1.205.976 2.182 2.182 2.182z"/>
  <path  d="M24.727 28.482h5.091A2.181 2.181 0 0 0 32 26.3V10.664l-7.273 5.455z"/>
  <path  d="M24.727 6.664v9.455L32 10.664V7.755c0-2.696-3.078-4.236-5.236-2.618z"/>
  <path  d="M7.273 16.118V6.663L16 13.208l8.727-6.545v9.455L16 22.663z" />
  <path  d="M0 7.755v2.909l7.273 5.455V6.664L5.237 5.137C3.079 3.519.001 5.059.001 7.755z"/></symbol>
  <symbol id="youtube" viewBox="0 0 32 32">
 <path d="M 44.898438 14.5 C 44.5 12.300781 42.601563 10.699219 40.398438 10.199219 C 37.101563 9.5 31 9 24.398438 9 C 17.800781 9 11.601563 9.5 8.300781 10.199219 C 6.101563 10.699219 4.199219 12.199219 3.800781 14.5 C 3.398438 17 3 20.5 3 25 C 3 29.5 3.398438 33 3.898438 35.5 C 4.300781 37.699219 6.199219 39.300781 8.398438 39.800781 C 11.898438 40.5 17.898438 41 24.5 41 C 31.101563 41 37.101563 40.5 40.601563 39.800781 C 42.800781 39.300781 44.699219 37.800781 45.101563 35.5 C 45.5 33 46 29.398438 46.101563 25 C 45.898438 20.5 45.398438 17 44.898438 14.5 Z M 19 32 L 19 18 L 31.199219 25 Z"/>
 </symbol>
</defs></svg>
